<mxfile host="Electron" modified="2023-11-02T13:29:49.251Z" agent="Mozilla/5.0 (Windows NT 10.0; Win64; x64) AppleWebKit/537.36 (KHTML, like Gecko) draw.io/22.0.3 Chrome/114.0.5735.289 Electron/25.8.4 Safari/537.36" etag="beQO2bPhIGyTLgmrrCVc" version="22.0.3" type="device">
  <diagram id="C5RBs43oDa-KdzZeNtuy" name="Page-1">
    <mxGraphModel dx="895" dy="665" grid="1" gridSize="10" guides="1" tooltips="1" connect="1" arrows="1" fold="1" page="1" pageScale="1" pageWidth="827" pageHeight="1169" math="0" shadow="0">
      <root>
        <mxCell id="WIyWlLk6GJQsqaUBKTNV-0" />
        <mxCell id="WIyWlLk6GJQsqaUBKTNV-1" parent="WIyWlLk6GJQsqaUBKTNV-0" />
        <mxCell id="O7rk-mqmJQ-ESD_I56Sp-0" style="edgeStyle=orthogonalEdgeStyle;rounded=0;orthogonalLoop=1;jettySize=auto;html=1;exitX=0.5;exitY=1;exitDx=0;exitDy=0;entryX=0.5;entryY=0;entryDx=0;entryDy=0;" edge="1" parent="WIyWlLk6GJQsqaUBKTNV-1" source="M5vUFUt_lPnEM81N_6xR-0" target="M5vUFUt_lPnEM81N_6xR-1">
          <mxGeometry relative="1" as="geometry" />
        </mxCell>
        <mxCell id="M5vUFUt_lPnEM81N_6xR-0" value="Start" style="rounded=1;whiteSpace=wrap;html=1;" parent="WIyWlLk6GJQsqaUBKTNV-1" vertex="1">
          <mxGeometry x="360" y="40" width="80" height="40" as="geometry" />
        </mxCell>
        <mxCell id="O7rk-mqmJQ-ESD_I56Sp-1" style="edgeStyle=orthogonalEdgeStyle;rounded=0;orthogonalLoop=1;jettySize=auto;html=1;exitX=0.5;exitY=1;exitDx=0;exitDy=0;entryX=0.5;entryY=0;entryDx=0;entryDy=0;" edge="1" parent="WIyWlLk6GJQsqaUBKTNV-1" source="M5vUFUt_lPnEM81N_6xR-1" target="M5vUFUt_lPnEM81N_6xR-2">
          <mxGeometry relative="1" as="geometry" />
        </mxCell>
        <mxCell id="M5vUFUt_lPnEM81N_6xR-1" value="Connect" style="rounded=0;whiteSpace=wrap;html=1;" parent="WIyWlLk6GJQsqaUBKTNV-1" vertex="1">
          <mxGeometry x="360" y="120" width="80" height="40" as="geometry" />
        </mxCell>
        <mxCell id="M5vUFUt_lPnEM81N_6xR-4" value="" style="edgeStyle=orthogonalEdgeStyle;rounded=0;orthogonalLoop=1;jettySize=auto;html=1;" parent="WIyWlLk6GJQsqaUBKTNV-1" source="M5vUFUt_lPnEM81N_6xR-2" target="M5vUFUt_lPnEM81N_6xR-3" edge="1">
          <mxGeometry relative="1" as="geometry" />
        </mxCell>
        <mxCell id="O7rk-mqmJQ-ESD_I56Sp-3" value="Yep" style="edgeLabel;html=1;align=center;verticalAlign=middle;resizable=0;points=[];" vertex="1" connectable="0" parent="M5vUFUt_lPnEM81N_6xR-4">
          <mxGeometry x="-0.1333" relative="1" as="geometry">
            <mxPoint x="3" y="-10" as="offset" />
          </mxGeometry>
        </mxCell>
        <mxCell id="O7rk-mqmJQ-ESD_I56Sp-5" value="" style="edgeStyle=orthogonalEdgeStyle;rounded=0;orthogonalLoop=1;jettySize=auto;html=1;" edge="1" parent="WIyWlLk6GJQsqaUBKTNV-1" source="M5vUFUt_lPnEM81N_6xR-2" target="O7rk-mqmJQ-ESD_I56Sp-4">
          <mxGeometry relative="1" as="geometry" />
        </mxCell>
        <mxCell id="O7rk-mqmJQ-ESD_I56Sp-6" value="Nah" style="edgeLabel;html=1;align=center;verticalAlign=middle;resizable=0;points=[];" vertex="1" connectable="0" parent="O7rk-mqmJQ-ESD_I56Sp-5">
          <mxGeometry x="-0.2074" y="1" relative="1" as="geometry">
            <mxPoint x="19" y="-10" as="offset" />
          </mxGeometry>
        </mxCell>
        <mxCell id="M5vUFUt_lPnEM81N_6xR-2" value="Table empty?" style="rhombus;whiteSpace=wrap;html=1;" parent="WIyWlLk6GJQsqaUBKTNV-1" vertex="1">
          <mxGeometry x="340" y="190" width="120" height="60" as="geometry" />
        </mxCell>
        <mxCell id="O7rk-mqmJQ-ESD_I56Sp-21" style="edgeStyle=orthogonalEdgeStyle;rounded=0;orthogonalLoop=1;jettySize=auto;html=1;exitX=0.5;exitY=1;exitDx=0;exitDy=0;entryX=1;entryY=0.5;entryDx=0;entryDy=0;" edge="1" parent="WIyWlLk6GJQsqaUBKTNV-1" source="M5vUFUt_lPnEM81N_6xR-3" target="O7rk-mqmJQ-ESD_I56Sp-9">
          <mxGeometry relative="1" as="geometry" />
        </mxCell>
        <mxCell id="M5vUFUt_lPnEM81N_6xR-3" value="Create columns" style="whiteSpace=wrap;html=1;" parent="WIyWlLk6GJQsqaUBKTNV-1" vertex="1">
          <mxGeometry x="500" y="200" width="80" height="40" as="geometry" />
        </mxCell>
        <mxCell id="O7rk-mqmJQ-ESD_I56Sp-8" style="edgeStyle=orthogonalEdgeStyle;rounded=0;orthogonalLoop=1;jettySize=auto;html=1;entryX=0.5;entryY=0;entryDx=0;entryDy=0;exitX=0.5;exitY=1;exitDx=0;exitDy=0;" edge="1" parent="WIyWlLk6GJQsqaUBKTNV-1" source="O7rk-mqmJQ-ESD_I56Sp-4" target="O7rk-mqmJQ-ESD_I56Sp-7">
          <mxGeometry relative="1" as="geometry">
            <mxPoint x="120" y="260" as="sourcePoint" />
          </mxGeometry>
        </mxCell>
        <mxCell id="O7rk-mqmJQ-ESD_I56Sp-4" value="Select last record" style="whiteSpace=wrap;html=1;" vertex="1" parent="WIyWlLk6GJQsqaUBKTNV-1">
          <mxGeometry x="220" y="200" width="80" height="40" as="geometry" />
        </mxCell>
        <mxCell id="O7rk-mqmJQ-ESD_I56Sp-20" style="edgeStyle=orthogonalEdgeStyle;rounded=0;orthogonalLoop=1;jettySize=auto;html=1;exitX=0.5;exitY=1;exitDx=0;exitDy=0;entryX=0;entryY=0.5;entryDx=0;entryDy=0;" edge="1" parent="WIyWlLk6GJQsqaUBKTNV-1" source="O7rk-mqmJQ-ESD_I56Sp-7" target="O7rk-mqmJQ-ESD_I56Sp-9">
          <mxGeometry relative="1" as="geometry" />
        </mxCell>
        <mxCell id="O7rk-mqmJQ-ESD_I56Sp-7" value="Load to Board" style="whiteSpace=wrap;html=1;" vertex="1" parent="WIyWlLk6GJQsqaUBKTNV-1">
          <mxGeometry x="220" y="280" width="80" height="40" as="geometry" />
        </mxCell>
        <mxCell id="O7rk-mqmJQ-ESD_I56Sp-13" value="" style="edgeStyle=orthogonalEdgeStyle;rounded=0;orthogonalLoop=1;jettySize=auto;html=1;" edge="1" parent="WIyWlLk6GJQsqaUBKTNV-1" source="O7rk-mqmJQ-ESD_I56Sp-9" target="O7rk-mqmJQ-ESD_I56Sp-12">
          <mxGeometry relative="1" as="geometry" />
        </mxCell>
        <mxCell id="O7rk-mqmJQ-ESD_I56Sp-9" value="Play" style="shape=process;whiteSpace=wrap;html=1;backgroundOutline=1;" vertex="1" parent="WIyWlLk6GJQsqaUBKTNV-1">
          <mxGeometry x="340" y="330" width="120" height="60" as="geometry" />
        </mxCell>
        <mxCell id="O7rk-mqmJQ-ESD_I56Sp-18" style="edgeStyle=orthogonalEdgeStyle;rounded=0;orthogonalLoop=1;jettySize=auto;html=1;exitX=0.5;exitY=1;exitDx=0;exitDy=0;entryX=0.5;entryY=0;entryDx=0;entryDy=0;" edge="1" parent="WIyWlLk6GJQsqaUBKTNV-1" source="O7rk-mqmJQ-ESD_I56Sp-12" target="O7rk-mqmJQ-ESD_I56Sp-16">
          <mxGeometry relative="1" as="geometry" />
        </mxCell>
        <mxCell id="O7rk-mqmJQ-ESD_I56Sp-12" value="Game ended" style="whiteSpace=wrap;html=1;" vertex="1" parent="WIyWlLk6GJQsqaUBKTNV-1">
          <mxGeometry x="360" y="440" width="80" height="40" as="geometry" />
        </mxCell>
        <mxCell id="O7rk-mqmJQ-ESD_I56Sp-23" value="" style="edgeStyle=orthogonalEdgeStyle;rounded=0;orthogonalLoop=1;jettySize=auto;html=1;" edge="1" parent="WIyWlLk6GJQsqaUBKTNV-1" source="O7rk-mqmJQ-ESD_I56Sp-14" target="O7rk-mqmJQ-ESD_I56Sp-22">
          <mxGeometry relative="1" as="geometry" />
        </mxCell>
        <mxCell id="O7rk-mqmJQ-ESD_I56Sp-14" value="Delete session" style="whiteSpace=wrap;html=1;" vertex="1" parent="WIyWlLk6GJQsqaUBKTNV-1">
          <mxGeometry x="360" y="600" width="80" height="40" as="geometry" />
        </mxCell>
        <mxCell id="O7rk-mqmJQ-ESD_I56Sp-19" style="edgeStyle=orthogonalEdgeStyle;rounded=0;orthogonalLoop=1;jettySize=auto;html=1;exitX=0.5;exitY=1;exitDx=0;exitDy=0;entryX=0.5;entryY=0;entryDx=0;entryDy=0;" edge="1" parent="WIyWlLk6GJQsqaUBKTNV-1" source="O7rk-mqmJQ-ESD_I56Sp-16" target="O7rk-mqmJQ-ESD_I56Sp-14">
          <mxGeometry relative="1" as="geometry" />
        </mxCell>
        <mxCell id="O7rk-mqmJQ-ESD_I56Sp-16" value="Write to the leaderboard" style="whiteSpace=wrap;html=1;" vertex="1" parent="WIyWlLk6GJQsqaUBKTNV-1">
          <mxGeometry x="360" y="520" width="80" height="40" as="geometry" />
        </mxCell>
        <mxCell id="O7rk-mqmJQ-ESD_I56Sp-22" value="End" style="rounded=1;whiteSpace=wrap;html=1;" vertex="1" parent="WIyWlLk6GJQsqaUBKTNV-1">
          <mxGeometry x="360" y="680" width="80" height="40" as="geometry" />
        </mxCell>
      </root>
    </mxGraphModel>
  </diagram>
</mxfile>
